<svg width="35" height="35" viewBox="0 0 35 35" fill="none" xmlns="http://www.w3.org/2000/svg">
<g clip-path="url(#clip0)">
<path d="M12.6289 6.50639C13.1952 6.50639 13.6543 6.04728 13.6543 5.48099V3.4162C13.6543 2.84991 13.1952 2.39081 12.6289 2.39081C12.0626 2.39081 11.6035 2.84991 11.6035 3.4162V5.48099C11.6035 6.04728 12.0626 6.50639 12.6289 6.50639Z" fill="white"/>
<path d="M3.32644 10.2598L1.53823 9.22736C1.04775 8.94408 0.42062 9.11224 0.137544 9.60265C-0.1456 10.0931 0.022427 10.7203 0.512837 11.0033L2.30105 12.0358C2.79037 12.3184 3.41797 12.152 3.70173 11.6605C3.98488 11.17 3.81685 10.5429 3.32644 10.2598V10.2598Z" fill="white"/>
<path d="M2.30105 21.5934L0.512837 22.6258C0.022427 22.909 -0.1456 23.536 0.137544 24.0265C0.422124 24.5194 1.05014 24.6837 1.53823 24.4018L3.32644 23.3694C3.81685 23.0862 3.98488 22.4592 3.70173 21.9687C3.41859 21.4783 2.7916 21.3101 2.30105 21.5934Z" fill="white"/>
<path d="M22.9567 12.0358L24.7449 11.0033C25.2353 10.7202 25.4034 10.0931 25.1202 9.60265C24.8371 9.11224 24.2101 8.94408 23.7195 9.22736L21.9313 10.2598C21.4409 10.5429 21.2729 11.17 21.556 11.6605C21.8406 12.1533 22.4686 12.3177 22.9567 12.0358Z" fill="white"/>
<path d="M27.269 18.2703C26.0952 15.3697 23.2479 13.4518 20.1155 13.4653C18.8319 10.6073 15.9595 8.61145 12.6289 8.61145C8.10567 8.61145 4.42581 12.2914 4.42581 16.8146C4.42581 19.7165 5.9412 22.2703 8.22147 23.7289C5.79013 27.5699 8.55458 32.6056 13.103 32.6056C29.2366 32.5888 28.3538 32.6469 28.6348 32.5597C32.2187 32.1554 35 29.1158 35 25.4279C35 21.2165 31.4014 17.9466 27.269 18.2703V18.2703ZM6.47659 16.8146C6.47659 13.4222 9.23653 10.6623 12.6289 10.6623C14.9166 10.6623 16.9154 11.9181 17.9754 13.7759C14.7352 14.7253 12.4855 17.6834 12.4494 21.0773C11.4308 21.1891 10.4704 21.5697 9.64327 22.1917C7.75621 21.1397 6.47659 19.1241 6.47659 16.8146V16.8146ZM28.2469 30.5372C27.8817 30.5669 18.5765 30.5497 13.103 30.5549C9.72189 30.5549 8.07422 26.3638 10.5899 24.0665C11.345 23.3769 12.3505 23.0101 13.4462 23.1097C14.1071 23.1693 14.6457 22.5975 14.5545 21.9462C14.0791 18.5535 16.7064 15.5158 20.1387 15.5158C22.6778 15.5158 24.9158 17.2249 25.5809 19.6721C25.7231 20.195 26.2476 20.5168 26.778 20.4073C29.974 19.7464 32.9492 22.1895 32.9492 25.4279C32.9492 28.0773 30.8838 30.3216 28.2469 30.5372V30.5372Z" fill="white"/>
</g>
<defs>
<clipPath id="clip0">
<rect width="35" height="35" fill="white"/>
</clipPath>
</defs>
</svg>
