<svg width="34" height="30" viewBox="0 0 34 30" fill="none" xmlns="http://www.w3.org/2000/svg">
<path d="M31 23.5783C31 24.3635 30.3539 25 29.557 25H17.943C17.1461 25 16.5 24.3635 16.5 23.5783C16.5 22.7931 17.1461 22.1566 17.943 22.1566H29.557C30.3539 22.1566 31 22.7931 31 23.5783Z" fill="black"/>
<path d="M31 15.0003C31 15.7855 30.3539 16.4221 29.557 16.4221H3.44303C2.64607 16.4221 2 15.7855 2 15.0003C2 14.2152 2.64607 13.5786 3.44303 13.5786H29.557C30.3539 13.5786 31 14.2152 31 15.0003Z" fill="black"/>
<path d="M29.557 7.84341C30.3539 7.84341 31 7.20689 31 6.4217C31 5.63652 30.3539 5 29.557 5H12.143C11.3461 5 10.7 5.63652 10.7 6.4217C10.7 7.20689 11.3461 7.84341 12.143 7.84341H29.557Z" fill="black"/>
</svg>
